<svg xmlns="http://www.w3.org/2000/svg" xmlns:xlink="http://www.w3.org/1999/xlink" width="500" zoomAndPan="magnify" viewBox="0 0 375 374.999991" height="500" preserveAspectRatio="xMidYMid meet" version="1.2"><defs><clipPath id="f0fbb59939"><path d="M 83.171875 126.941406 L 325.480469 126.941406 L 325.480469 241.5 L 83.171875 241.5 Z M 83.171875 126.941406 "/></clipPath></defs><g id="6741bc8ed1"><g clip-rule="nonzero" clip-path="url(#f0fbb59939)"><path style=" stroke:none;fill-rule:nonzero;fill:#ffffff;fill-opacity:1;" d="M 83.171875 126.941406 L 325.273438 126.941406 L 325.273438 241.5 L 83.171875 241.5 Z M 83.171875 126.941406 "/></g><g style="fill:#16588e;fill-opacity:1;"><g transform="translate(98.553836, 192.303868)"><path style="stroke:none" d="M 9.9375 0.53125 C 8.375 0.53125 6.878906 0.378906 5.453125 0.078125 C 4.023438 -0.222656 2.6875 -0.625 1.4375 -1.125 L 2.078125 -8.015625 C 3.972656 -7.015625 6.148438 -6.515625 8.609375 -6.515625 C 10.273438 -6.515625 11.488281 -6.90625 12.25 -7.6875 C 13.019531 -8.476562 13.40625 -9.585938 13.40625 -11.015625 L 13.40625 -11.546875 C 13.40625 -12.398438 13.253906 -13.195312 12.953125 -13.9375 C 12.648438 -14.6875 12.125 -15.488281 11.375 -16.34375 C 10.632812 -17.207031 9.585938 -18.191406 8.234375 -19.296875 C 5.804688 -21.328125 4.015625 -23.425781 2.859375 -25.59375 C 1.703125 -27.769531 1.125 -30.191406 1.125 -32.859375 L 1.125 -33.34375 C 1.125 -36.9375 2.140625 -39.609375 4.171875 -41.359375 C 6.203125 -43.109375 8.941406 -43.984375 12.390625 -43.984375 C 13.742188 -43.984375 15.070312 -43.863281 16.375 -43.625 C 17.675781 -43.394531 18.914062 -43.085938 20.09375 -42.703125 L 19.390625 -35.859375 C 18.503906 -36.140625 17.578125 -36.378906 16.609375 -36.578125 C 15.648438 -36.773438 14.691406 -36.875 13.734375 -36.875 C 11.921875 -36.875 10.613281 -36.507812 9.8125 -35.78125 C 9.007812 -35.050781 8.609375 -34.0625 8.609375 -32.8125 L 8.609375 -32.28125 C 8.609375 -31.457031 8.765625 -30.6875 9.078125 -29.96875 C 9.398438 -29.257812 9.953125 -28.484375 10.734375 -27.640625 C 11.523438 -26.804688 12.578125 -25.769531 13.890625 -24.53125 C 16.316406 -22.351562 18.097656 -20.238281 19.234375 -18.1875 C 20.378906 -16.144531 20.953125 -13.71875 20.953125 -10.90625 L 20.953125 -10.359375 C 20.953125 -6.660156 19.953125 -3.921875 17.953125 -2.140625 C 15.960938 -0.359375 13.289062 0.53125 9.9375 0.53125 Z M 9.9375 0.53125 "/></g></g><g style="fill:#16588e;fill-opacity:1;"><g transform="translate(122.013215, 192.303868)"><path style="stroke:none" d="M 25.546875 0 L 18.21875 0 L 16.78125 -10.359375 L 9.453125 -10.359375 L 8.015625 0 L 0.6875 0 L 7.59375 -43.34375 L 18.546875 -43.34375 Z M 10.421875 -17.421875 L 15.765625 -17.421875 L 13.09375 -36.875 Z M 10.421875 -17.421875 "/></g></g><g style="fill:#16588e;fill-opacity:1;"><g transform="translate(149.53384, 192.303868)"><path style="stroke:none" d="M 10.046875 0 L 2.453125 0 L 2.453125 -43.34375 L 10.046875 -43.34375 Z M 10.046875 0 "/></g></g><g style="fill:#16588e;fill-opacity:1;"><g transform="translate(163.427916, 192.303868)"><path style="stroke:none" d="M 21.53125 0 L 2.453125 0 L 2.453125 -43.34375 L 10.046875 -43.34375 L 10.046875 -7.046875 L 21.53125 -7.046875 Z M 21.53125 0 "/></g></g><g style="fill:#16588e;fill-opacity:1;"><g transform="translate(187.314801, 192.303868)"><path style="stroke:none" d="M 10.046875 0 L 2.453125 0 L 2.453125 -43.34375 L 10.046875 -43.34375 Z M 10.046875 0 "/></g></g><g style="fill:#16588e;fill-opacity:1;"><g transform="translate(201.208877, 192.303868)"><path style="stroke:none" d="M 18.59375 -11.328125 L 18.59375 -43.34375 L 26.1875 -43.34375 L 26.1875 0 L 16.1875 0 L 10.046875 -32.484375 L 10.046875 0 L 2.453125 0 L 2.453125 -43.34375 L 12.5625 -43.34375 Z M 18.59375 -11.328125 "/></g></g><g style="fill:#16588e;fill-opacity:1;"><g transform="translate(231.187635, 192.303868)"><path style="stroke:none" d="M 15.4375 -24.203125 L 22.609375 -24.203125 L 22.609375 -2.1875 C 20.960938 -1.257812 19.410156 -0.5625 17.953125 -0.09375 C 16.492188 0.363281 14.800781 0.59375 12.875 0.59375 C 9.28125 0.59375 6.535156 -0.359375 4.640625 -2.265625 C 2.753906 -4.171875 1.8125 -7.140625 1.8125 -11.171875 L 1.8125 -31.46875 C 1.8125 -35.394531 2.773438 -38.46875 4.703125 -40.6875 C 6.628906 -42.914062 9.425781 -44.03125 13.09375 -44.03125 C 14.445312 -44.03125 15.800781 -43.894531 17.15625 -43.625 C 18.507812 -43.363281 19.914062 -42.984375 21.375 -42.484375 L 20.734375 -35.59375 C 19.773438 -35.976562 18.6875 -36.296875 17.46875 -36.546875 C 16.257812 -36.796875 15.300781 -36.921875 14.59375 -36.921875 C 12.769531 -36.921875 11.445312 -36.445312 10.625 -35.5 C 9.8125 -34.5625 9.40625 -33.148438 9.40625 -31.265625 L 9.40625 -10.578125 C 9.40625 -7.835938 10.523438 -6.46875 12.765625 -6.46875 C 13.265625 -6.46875 13.769531 -6.554688 14.28125 -6.734375 C 14.800781 -6.910156 15.1875 -7.210938 15.4375 -7.640625 Z M 15.4375 -24.203125 "/></g></g><g style="fill:#16588e;fill-opacity:1;"><g transform="translate(257.15858, 192.303868)"><path style="stroke:none" d="M 25.546875 0 L 18.21875 0 L 16.78125 -10.359375 L 9.453125 -10.359375 L 8.015625 0 L 0.6875 0 L 7.59375 -43.34375 L 18.546875 -43.34375 Z M 10.421875 -17.421875 L 15.765625 -17.421875 L 13.09375 -36.875 Z M 10.421875 -17.421875 "/></g></g><g style="fill:#16588e;fill-opacity:1;"><g transform="translate(284.679205, 192.303868)"><path style="stroke:none" d="M 25.546875 0 L 18.21875 0 L 16.78125 -10.359375 L 9.453125 -10.359375 L 8.015625 0 L 0.6875 0 L 7.59375 -43.34375 L 18.546875 -43.34375 Z M 10.421875 -17.421875 L 15.765625 -17.421875 L 13.09375 -36.875 Z M 10.421875 -17.421875 "/></g></g><g style="fill:#1c98ed;fill-opacity:1;"><g transform="translate(117.352122, 217.292067)"><path style="stroke:none" d="M 0.671875 -11.25 L 0.671875 -13.625 L 11.859375 -13.625 L 11.859375 -11.25 L 7.6875 -11.25 L 7.6875 0 L 4.84375 0 L 4.84375 -11.25 Z M 0.671875 -11.25 "/></g></g><g style="fill:#1c98ed;fill-opacity:1;"><g transform="translate(130.336027, 217.292067)"><path style="stroke:none" d="M 3.53125 0 L 0.453125 0 L 5.15625 -13.625 L 8.859375 -13.625 L 13.5625 0 L 10.46875 0 L 9.453125 -3.109375 L 4.546875 -3.109375 Z M 5.28125 -5.359375 L 8.734375 -5.359375 L 7.0625 -10.515625 L 6.953125 -10.515625 Z M 5.28125 -5.359375 "/></g></g><g style="fill:#1c98ed;fill-opacity:1;"><g transform="translate(144.809552, 217.292067)"><path style="stroke:none" d="M 3.890625 -13.625 L 6.640625 -8.984375 L 6.734375 -8.984375 L 9.5 -13.625 L 12.75 -13.625 L 8.59375 -6.8125 L 12.84375 0 L 9.53125 0 L 6.734375 -4.65625 L 6.640625 -4.65625 L 3.84375 0 L 0.53125 0 L 4.796875 -6.8125 L 0.625 -13.625 Z M 3.890625 -13.625 "/></g></g><g style="fill:#1c98ed;fill-opacity:1;"><g transform="translate(158.657978, 217.292067)"><path style="stroke:none" d=""/></g></g><g style="fill:#1c98ed;fill-opacity:1;"><g transform="translate(163.468925, 217.292067)"><path style="stroke:none" d="M 3.53125 0 L 0.453125 0 L 5.15625 -13.625 L 8.859375 -13.625 L 13.5625 0 L 10.46875 0 L 9.453125 -3.109375 L 4.546875 -3.109375 Z M 5.28125 -5.359375 L 8.734375 -5.359375 L 7.0625 -10.515625 L 6.953125 -10.515625 Z M 5.28125 -5.359375 "/></g></g><g style="fill:#1c98ed;fill-opacity:1;"><g transform="translate(177.942451, 217.292067)"><path style="stroke:none" d="M 8.578125 -9.703125 C 8.523438 -10.242188 8.296875 -10.660156 7.890625 -10.953125 C 7.484375 -11.253906 6.9375 -11.40625 6.25 -11.40625 C 5.539062 -11.40625 5 -11.257812 4.625 -10.96875 C 4.25 -10.675781 4.0625 -10.3125 4.0625 -9.875 C 4.050781 -9.382812 4.257812 -9.015625 4.6875 -8.765625 C 5.113281 -8.515625 5.625 -8.320312 6.21875 -8.1875 L 7.4375 -7.890625 C 8.226562 -7.710938 8.929688 -7.457031 9.546875 -7.125 C 10.160156 -6.789062 10.640625 -6.359375 10.984375 -5.828125 C 11.335938 -5.296875 11.515625 -4.648438 11.515625 -3.890625 C 11.515625 -2.640625 11.050781 -1.644531 10.125 -0.90625 C 9.195312 -0.175781 7.898438 0.1875 6.234375 0.1875 C 4.578125 0.1875 3.253906 -0.1875 2.265625 -0.9375 C 1.285156 -1.6875 0.78125 -2.800781 0.75 -4.28125 L 3.53125 -4.28125 C 3.582031 -3.59375 3.851562 -3.078125 4.34375 -2.734375 C 4.832031 -2.390625 5.453125 -2.21875 6.203125 -2.21875 C 6.929688 -2.21875 7.515625 -2.375 7.953125 -2.6875 C 8.390625 -3 8.609375 -3.40625 8.609375 -3.90625 C 8.609375 -4.363281 8.40625 -4.710938 8 -4.953125 C 7.601562 -5.203125 7.035156 -5.421875 6.296875 -5.609375 L 4.8125 -5.96875 C 3.664062 -6.25 2.757812 -6.6875 2.09375 -7.28125 C 1.425781 -7.882812 1.097656 -8.6875 1.109375 -9.6875 C 1.097656 -10.507812 1.316406 -11.226562 1.765625 -11.84375 C 2.210938 -12.46875 2.828125 -12.953125 3.609375 -13.296875 C 4.390625 -13.640625 5.273438 -13.8125 6.265625 -13.8125 C 7.273438 -13.8125 8.15625 -13.640625 8.90625 -13.296875 C 9.664062 -12.953125 10.253906 -12.46875 10.671875 -11.84375 C 11.097656 -11.226562 11.320312 -10.515625 11.34375 -9.703125 Z M 8.578125 -9.703125 "/></g></g><g style="fill:#1c98ed;fill-opacity:1;"><g transform="translate(190.673659, 217.292067)"><path style="stroke:none" d="M 8.578125 -9.703125 C 8.523438 -10.242188 8.296875 -10.660156 7.890625 -10.953125 C 7.484375 -11.253906 6.9375 -11.40625 6.25 -11.40625 C 5.539062 -11.40625 5 -11.257812 4.625 -10.96875 C 4.25 -10.675781 4.0625 -10.3125 4.0625 -9.875 C 4.050781 -9.382812 4.257812 -9.015625 4.6875 -8.765625 C 5.113281 -8.515625 5.625 -8.320312 6.21875 -8.1875 L 7.4375 -7.890625 C 8.226562 -7.710938 8.929688 -7.457031 9.546875 -7.125 C 10.160156 -6.789062 10.640625 -6.359375 10.984375 -5.828125 C 11.335938 -5.296875 11.515625 -4.648438 11.515625 -3.890625 C 11.515625 -2.640625 11.050781 -1.644531 10.125 -0.90625 C 9.195312 -0.175781 7.898438 0.1875 6.234375 0.1875 C 4.578125 0.1875 3.253906 -0.1875 2.265625 -0.9375 C 1.285156 -1.6875 0.78125 -2.800781 0.75 -4.28125 L 3.53125 -4.28125 C 3.582031 -3.59375 3.851562 -3.078125 4.34375 -2.734375 C 4.832031 -2.390625 5.453125 -2.21875 6.203125 -2.21875 C 6.929688 -2.21875 7.515625 -2.375 7.953125 -2.6875 C 8.390625 -3 8.609375 -3.40625 8.609375 -3.90625 C 8.609375 -4.363281 8.40625 -4.710938 8 -4.953125 C 7.601562 -5.203125 7.035156 -5.421875 6.296875 -5.609375 L 4.8125 -5.96875 C 3.664062 -6.25 2.757812 -6.6875 2.09375 -7.28125 C 1.425781 -7.882812 1.097656 -8.6875 1.109375 -9.6875 C 1.097656 -10.507812 1.316406 -11.226562 1.765625 -11.84375 C 2.210938 -12.46875 2.828125 -12.953125 3.609375 -13.296875 C 4.390625 -13.640625 5.273438 -13.8125 6.265625 -13.8125 C 7.273438 -13.8125 8.15625 -13.640625 8.90625 -13.296875 C 9.664062 -12.953125 10.253906 -12.46875 10.671875 -11.84375 C 11.097656 -11.226562 11.320312 -10.515625 11.34375 -9.703125 Z M 8.578125 -9.703125 "/></g></g><g style="fill:#1c98ed;fill-opacity:1;"><g transform="translate(203.404866, 217.292067)"><path style="stroke:none" d="M 13.703125 -6.8125 C 13.703125 -5.320312 13.421875 -4.054688 12.859375 -3.015625 C 12.296875 -1.972656 11.535156 -1.175781 10.578125 -0.625 C 9.617188 -0.0820312 8.535156 0.1875 7.328125 0.1875 C 6.117188 0.1875 5.03125 -0.0859375 4.0625 -0.640625 C 3.101562 -1.191406 2.34375 -1.988281 1.78125 -3.03125 C 1.21875 -4.070312 0.9375 -5.332031 0.9375 -6.8125 C 0.9375 -8.300781 1.21875 -9.566406 1.78125 -10.609375 C 2.34375 -11.648438 3.101562 -12.441406 4.0625 -12.984375 C 5.03125 -13.535156 6.117188 -13.8125 7.328125 -13.8125 C 8.535156 -13.8125 9.617188 -13.535156 10.578125 -12.984375 C 11.535156 -12.441406 12.296875 -11.648438 12.859375 -10.609375 C 13.421875 -9.566406 13.703125 -8.300781 13.703125 -6.8125 Z M 10.78125 -6.8125 C 10.78125 -8.257812 10.460938 -9.363281 9.828125 -10.125 C 9.203125 -10.882812 8.367188 -11.265625 7.328125 -11.265625 C 6.273438 -11.265625 5.429688 -10.882812 4.796875 -10.125 C 4.171875 -9.363281 3.859375 -8.257812 3.859375 -6.8125 C 3.859375 -5.375 4.171875 -4.269531 4.796875 -3.5 C 5.429688 -2.738281 6.273438 -2.359375 7.328125 -2.359375 C 8.367188 -2.359375 9.203125 -2.738281 9.828125 -3.5 C 10.460938 -4.269531 10.78125 -5.375 10.78125 -6.8125 Z M 10.78125 -6.8125 "/></g></g><g style="fill:#1c98ed;fill-opacity:1;"><g transform="translate(218.5168, 217.292067)"><path style="stroke:none" d="M 13.203125 -8.859375 L 10.296875 -8.859375 C 10.179688 -9.609375 9.859375 -10.195312 9.328125 -10.625 C 8.804688 -11.050781 8.148438 -11.265625 7.359375 -11.265625 C 6.304688 -11.265625 5.457031 -10.875 4.8125 -10.09375 C 4.175781 -9.320312 3.859375 -8.226562 3.859375 -6.8125 C 3.859375 -5.351562 4.175781 -4.242188 4.8125 -3.484375 C 5.457031 -2.734375 6.300781 -2.359375 7.34375 -2.359375 C 8.101562 -2.359375 8.75 -2.554688 9.28125 -2.953125 C 9.8125 -3.359375 10.148438 -3.925781 10.296875 -4.65625 L 13.203125 -4.640625 C 13.097656 -3.804688 12.800781 -3.019531 12.3125 -2.28125 C 11.820312 -1.550781 11.15625 -0.957031 10.3125 -0.5 C 9.46875 -0.0390625 8.460938 0.1875 7.296875 0.1875 C 6.078125 0.1875 4.988281 -0.0859375 4.03125 -0.640625 C 3.070312 -1.191406 2.316406 -1.988281 1.765625 -3.03125 C 1.210938 -4.070312 0.9375 -5.332031 0.9375 -6.8125 C 0.9375 -8.300781 1.21875 -9.566406 1.78125 -10.609375 C 2.34375 -11.648438 3.101562 -12.441406 4.0625 -12.984375 C 5.019531 -13.535156 6.097656 -13.8125 7.296875 -13.8125 C 8.347656 -13.8125 9.296875 -13.613281 10.140625 -13.21875 C 10.984375 -12.832031 11.671875 -12.269531 12.203125 -11.53125 C 12.742188 -10.800781 13.078125 -9.910156 13.203125 -8.859375 Z M 13.203125 -8.859375 "/></g></g><g style="fill:#1c98ed;fill-opacity:1;"><g transform="translate(233.070136, 217.292067)"><path style="stroke:none" d="M 4.0625 -13.625 L 4.0625 0 L 1.1875 0 L 1.1875 -13.625 Z M 4.0625 -13.625 "/></g></g><g style="fill:#1c98ed;fill-opacity:1;"><g transform="translate(238.792147, 217.292067)"><path style="stroke:none" d="M 3.53125 0 L 0.453125 0 L 5.15625 -13.625 L 8.859375 -13.625 L 13.5625 0 L 10.46875 0 L 9.453125 -3.109375 L 4.546875 -3.109375 Z M 5.28125 -5.359375 L 8.734375 -5.359375 L 7.0625 -10.515625 L 6.953125 -10.515625 Z M 5.28125 -5.359375 "/></g></g><g style="fill:#1c98ed;fill-opacity:1;"><g transform="translate(253.265672, 217.292067)"><path style="stroke:none" d="M 0.671875 -11.25 L 0.671875 -13.625 L 11.859375 -13.625 L 11.859375 -11.25 L 7.6875 -11.25 L 7.6875 0 L 4.84375 0 L 4.84375 -11.25 Z M 0.671875 -11.25 "/></g></g><g style="fill:#1c98ed;fill-opacity:1;"><g transform="translate(266.249577, 217.292067)"><path style="stroke:none" d="M 1.1875 0 L 1.1875 -13.625 L 10.359375 -13.625 L 10.359375 -11.25 L 4.0625 -11.25 L 4.0625 -8 L 9.890625 -8 L 9.890625 -5.625 L 4.0625 -5.625 L 4.0625 -2.375 L 10.390625 -2.375 L 10.390625 0 Z M 1.1875 0 "/></g></g><g style="fill:#1c98ed;fill-opacity:1;"><g transform="translate(278.189426, 217.292067)"><path style="stroke:none" d="M 8.578125 -9.703125 C 8.523438 -10.242188 8.296875 -10.660156 7.890625 -10.953125 C 7.484375 -11.253906 6.9375 -11.40625 6.25 -11.40625 C 5.539062 -11.40625 5 -11.257812 4.625 -10.96875 C 4.25 -10.675781 4.0625 -10.3125 4.0625 -9.875 C 4.050781 -9.382812 4.257812 -9.015625 4.6875 -8.765625 C 5.113281 -8.515625 5.625 -8.320312 6.21875 -8.1875 L 7.4375 -7.890625 C 8.226562 -7.710938 8.929688 -7.457031 9.546875 -7.125 C 10.160156 -6.789062 10.640625 -6.359375 10.984375 -5.828125 C 11.335938 -5.296875 11.515625 -4.648438 11.515625 -3.890625 C 11.515625 -2.640625 11.050781 -1.644531 10.125 -0.90625 C 9.195312 -0.175781 7.898438 0.1875 6.234375 0.1875 C 4.578125 0.1875 3.253906 -0.1875 2.265625 -0.9375 C 1.285156 -1.6875 0.78125 -2.800781 0.75 -4.28125 L 3.53125 -4.28125 C 3.582031 -3.59375 3.851562 -3.078125 4.34375 -2.734375 C 4.832031 -2.390625 5.453125 -2.21875 6.203125 -2.21875 C 6.929688 -2.21875 7.515625 -2.375 7.953125 -2.6875 C 8.390625 -3 8.609375 -3.40625 8.609375 -3.90625 C 8.609375 -4.363281 8.40625 -4.710938 8 -4.953125 C 7.601562 -5.203125 7.035156 -5.421875 6.296875 -5.609375 L 4.8125 -5.96875 C 3.664062 -6.25 2.757812 -6.6875 2.09375 -7.28125 C 1.425781 -7.882812 1.097656 -8.6875 1.109375 -9.6875 C 1.097656 -10.507812 1.316406 -11.226562 1.765625 -11.84375 C 2.210938 -12.46875 2.828125 -12.953125 3.609375 -13.296875 C 4.390625 -13.640625 5.273438 -13.8125 6.265625 -13.8125 C 7.273438 -13.8125 8.15625 -13.640625 8.90625 -13.296875 C 9.664062 -12.953125 10.253906 -12.46875 10.671875 -11.84375 C 11.097656 -11.226562 11.320312 -10.515625 11.34375 -9.703125 Z M 8.578125 -9.703125 "/></g></g></g></svg>