<svg xmlns="http://www.w3.org/2000/svg" xmlns:xlink="http://www.w3.org/1999/xlink" version="1.1" id="Layer_1" x="0px" y="0px" viewBox="0 0 134 42" enable-background="new 0 0 134 42" xml:space="preserve">
<g>
	<defs>
		<rect id="SVGID_1_" width="134" height="42"/>
	</defs>
	<clipPath id="SVGID_00000131340835452074790420000006943188503991239358_">
		<use xlink:href="#SVGID_1_" overflow="visible"/>
	</clipPath>
	<g clip-path="url(#SVGID_00000131340835452074790420000006943188503991239358_)">
		<defs>
			<filter id="Adobe_OpacityMaskFilter" filterUnits="userSpaceOnUse" x="0" y="0" width="134" height="42">
				<feColorMatrix type="matrix" values="1 0 0 0 0  0 1 0 0 0  0 0 1 0 0  0 0 0 1 0"/>
			</filter>
		</defs>
		
			<mask maskUnits="userSpaceOnUse" x="0" y="0" width="134" height="42" id="mask0_5766_3304_00000124152825733243624310000012357434991059472295_">
			<path fill="#FFFFFF" filter="url(#Adobe_OpacityMaskFilter)" d="M134,0H0v42h134V0z"/>
		</mask>
		<g mask="url(#mask0_5766_3304_00000124152825733243624310000012357434991059472295_)">
			<path fill="#FFCB05" d="M134,28.74H0V42h134V28.74z"/>
			<path d="M89.96,39.73v-8.8h5.39v0.93h-4.44v2.88h4.31v0.9h-4.31v4.09H89.96z"/>
			<path d="M96.89,31.97v-1.04h0.9v1.04H96.89z M96.89,39.73V33.5h0.9v6.22H96.89z"/>
			<path d="M99.67,39.72V33.5h0.86v0.85c0.15-0.32,0.38-0.55,0.71-0.71c0.32-0.15,0.75-0.23,1.29-0.23c0.8,0,1.36,0.16,1.68,0.49     c0.32,0.33,0.48,0.91,0.48,1.73v4.08h-0.9v-3.88c0-0.65-0.09-1.08-0.28-1.28c-0.19-0.2-0.55-0.31-1.09-0.31     c-0.64,0-1.1,0.15-1.4,0.45c-0.3,0.3-0.44,0.77-0.44,1.41v3.62H99.67z"/>
			<path d="M110.54,39.07c-0.14,0.26-0.36,0.45-0.66,0.56c-0.3,0.12-0.72,0.17-1.26,0.17c-0.95,0-1.59-0.14-1.92-0.42     c-0.32-0.28-0.49-0.79-0.49-1.55c0-0.44,0.04-0.78,0.11-1.03c0.08-0.25,0.2-0.45,0.37-0.6c0.15-0.13,0.36-0.22,0.65-0.27     c0.28-0.05,0.69-0.08,1.22-0.08s0.97,0.05,1.27,0.14c0.29,0.09,0.51,0.25,0.66,0.46V35.4c0-0.51-0.1-0.84-0.29-0.99     c-0.19-0.15-0.68-0.23-1.45-0.23c-0.56,0-0.94,0.06-1.13,0.18c-0.19,0.12-0.28,0.35-0.29,0.68h-0.9V34.9     c0-0.53,0.17-0.91,0.51-1.14c0.34-0.23,0.92-0.34,1.75-0.34c0.64,0,1.14,0.03,1.47,0.08c0.34,0.05,0.59,0.14,0.75,0.27     c0.18,0.14,0.3,0.32,0.38,0.53c0.07,0.21,0.11,0.57,0.11,1.07v4.36h-0.82L110.54,39.07L110.54,39.07z M110.5,38.14v-0.66     c0-0.3-0.15-0.51-0.44-0.65c-0.29-0.14-0.77-0.21-1.41-0.21c-0.59,0-0.99,0.08-1.18,0.23c-0.2,0.15-0.3,0.44-0.3,0.87     c0,0.49,0.11,0.81,0.32,0.98c0.21,0.16,0.63,0.25,1.26,0.25c0.57,0,1-0.07,1.31-0.21C110.35,38.6,110.5,38.4,110.5,38.14     L110.5,38.14z"/>
			<path d="M113.21,39.72V33.5h0.86v0.85c0.15-0.32,0.38-0.55,0.71-0.71c0.33-0.15,0.75-0.23,1.29-0.23c0.8,0,1.36,0.16,1.68,0.49     c0.32,0.33,0.48,0.91,0.48,1.73v4.08h-0.9v-3.88c0-0.65-0.09-1.08-0.28-1.28c-0.19-0.2-0.55-0.31-1.09-0.31     c-0.64,0-1.1,0.15-1.4,0.45c-0.3,0.3-0.44,0.77-0.44,1.41v3.62H113.21L113.21,39.72z"/>
			<path d="M122.26,39.81c-0.91,0-1.55-0.18-1.91-0.54c-0.36-0.36-0.55-1-0.55-1.91v-1.48c0-0.91,0.18-1.55,0.54-1.91     c0.36-0.36,1-0.54,1.9-0.54h0.42c0.86,0,1.48,0.17,1.86,0.51c0.38,0.34,0.58,0.89,0.59,1.66l-0.93,0.01     c-0.02-0.5-0.13-0.85-0.34-1.04c-0.2-0.19-0.6-0.28-1.19-0.28h-0.42c-0.62,0-1.03,0.11-1.22,0.32c-0.19,0.21-0.29,0.71-0.29,1.5     v1.06c0,0.79,0.1,1.29,0.29,1.51c0.19,0.21,0.6,0.32,1.22,0.32h0.42c0.6,0,1-0.1,1.21-0.31c0.21-0.21,0.32-0.58,0.32-1.13v-0.11     h0.93v0.12c0,0.81-0.19,1.39-0.56,1.74c-0.38,0.35-1,0.52-1.88,0.52L122.26,39.81L122.26,39.81z"/>
			<path d="M128.96,39.81c-0.91,0-1.55-0.18-1.91-0.54c-0.36-0.36-0.55-1-0.55-1.91v-1.48c0-0.91,0.18-1.55,0.54-1.91     c0.36-0.36,1-0.54,1.9-0.54h0.42c0.91,0,1.55,0.18,1.91,0.54c0.36,0.36,0.54,1,0.54,1.91v0.94l-4.39,0.01     c0,0.06-0.01,0.13-0.01,0.21c0,0.08,0,0.18,0,0.32c0,0.64,0.1,1.07,0.3,1.29c0.2,0.22,0.61,0.33,1.22,0.33h0.42     c0.55,0,0.92-0.08,1.14-0.24c0.21-0.16,0.34-0.44,0.37-0.84h0.94c-0.05,0.67-0.26,1.16-0.64,1.46c-0.38,0.3-0.98,0.45-1.8,0.45     H128.96z M127.45,36.01h3.45v-0.24c0-0.58-0.1-0.98-0.31-1.19c-0.21-0.21-0.61-0.31-1.22-0.31h-0.42c-0.6,0-1,0.1-1.21,0.31     c-0.2,0.21-0.3,0.61-0.3,1.19L127.45,36.01L127.45,36.01z"/>
			<path fill-rule="evenodd" clip-rule="evenodd" d="M31.82,37.31l-0.88-7.18l-3.25,0.35c0.21-0.61,0.26-1.14,0.12-1.63l0.22-0.31     c0.3-2.42,0.42-5.17,0.67-7.66c0.17-1.65-0.63-2.3-1.43-2.56l-6.19-3c-0.12-0.7,0.05-1.51,0.76-1.84c0.23-0.11,0.46-0.4,0.5-0.97     c0.08-1.28-0.5-1.28-0.55-1.54c-0.04-0.44,0.09-0.85,0.46-1.19c0.6-0.62,0.85-1.4,0.55-2.08c-0.86-1.93-2.1-0.92-2.4-1.01     c-0.34-0.13-0.42-0.35-0.51-0.53c-0.59-1.32-2.82-1.94-4.41-1.94c-1.44,0-2.66,0.37-3.66,1.59c-1.14,0.88-1.77,2.43-0.93,4.36     c0.09,0.27,0.13,0.88,0,1.02c-0.3,0.26-0.59,0.43-0.88,0.52c-0.75-1.23-1.26-3.09-1.8-4.24C8.16,7.12,8.29,6.54,8.37,6.11     c0.12-0.49,0.05-1.02-0.08-1.32C8.08,3.64,7.78,2.54,7.45,1.39C7.15,0.29,6.84-0.02,6.39,0c-0.62,0.03-0.8,0.82-0.76,1.97     C5.17,2.06,4.71,2.36,4.41,2.8c-0.47-0.18-0.81-0.05-1.1,0.4C3,3.12,2.73,3.21,2.52,3.42C2.28,3.64,2.17,3.97,2.17,4.3     c0.01,0.75,0.28,1.25,0.82,1.59C2.73,6.5,3.06,7.3,3.74,8.27c0,0.09-0.08,0.17-0.16,0.26L3.2,8.88l1.52,6.04     c0.34,1.77,0.67,4.06,1.01,6.57c0.08,0.75,0.12,1.45,0,2.12l-1.27,8.02c0.47,0.49,2.49,1.06,4.97,1.64l0.17,1.4l-4.97,1.28     c-0.33,0.18-0.29,0.96,0.17,1.01L14,35.98l0.34-1.45c0.21-0.26,0.54-0.31,0.89-0.05l1.05,3.31l7.08,1.95     c0.38,0.08,0.71,0.08,0.88-0.09c0.21-0.21,0.21-0.66,0-1.14L31.82,37.31L31.82,37.31z M10.53,34.06l-0.09-1.15l0.71-0.04     l0.12,1.14L10.53,34.06z M19.53,35.42V34.2c0.3-0.14,0.63-0.28,0.93-0.49c0.26,0,0.47,0.13,0.68,0.44l0.42,2.47     C20.84,36.34,20.12,35.69,19.53,35.42z"/>
			<path fill-rule="evenodd" clip-rule="evenodd" fill="#FFFFFF" d="M18.45,10.01c0.29,0,0.5,0.22,0.5,0.54     c0,0.31-0.2,0.52-0.5,0.52c-0.29,0-0.51-0.22-0.51-0.52C17.94,10.25,18.15,10.01,18.45,10.01z M15.01,7.31     c0.67,0.17,1.17,0.17,1.67-0.18c0.21,0.13,0.5,0.25,0.79,0.21c0.9-0.11,1.67-0.39,2.22,0.3c0.08,0.27,0,0.45-0.25,0.58     c-1.12-0.35-1.58,0-2.17,1.05c0.04,0.26,0.41,0.08,0.83-0.25c0.25-0.32,0.63-0.46,0.83-0.36l1.17,0.22     c0.34,0,0.63,0.44,0.58,1.05c0.05,1.4-0.33,2.68-0.2,5.13c0.02,0.28-0.03,0.49-0.13,0.66c-0.11,0.19-0.29,0.31-0.5,0.35     c-1.13,0.21-2.26,0.45-3.39,0.73c-0.41,0.06-0.8,0.06-1.21-0.08c-0.84-0.26-1.88-0.52-2.47-0.91c-0.55-0.31-0.85-0.93-0.8-1.76     c0.04-0.75,0.29-1.35,0.25-2.32l-0.21-2.8c0.08-0.79,0.38-1.32,1.13-1.32c0.12,0.04,0.25,0.31,0.25,0.49     c-0.21,0.3-0.39,0.64-0.5,1c-0.05,0.32,0.25,0.48,0.5,0.22c0.21-0.44,0.54-0.65,1.17-0.44c0.46,0.39,0.75,0.82,0.75,1.49     c-0.04,0.65-0.04,1.1-0.08,1.71c0,0.27,0.04,0.44,0.25,0.53c0.13,0.12,0.13,0.3,0.08,0.43c-0.21,0.17-0.42,0.26-0.62,0.22     c-0.51-0.13-0.96-0.44-1.39-0.83c-0.16-0.26-0.45,0-0.36,0.26l0.75,0.74c0.45,0.44,0.75,1.75,2.3,1.75     c1.55,0.09,1.84-1.04,2.21-1.57c0.17-0.26,0.34-0.57,0.59-0.83c0.25-0.05,0.41-0.14,0.5-0.35c-0.09-0.22-0.3-0.44-0.5-0.36     c-0.13,0-0.09,0.09-0.21,0.22l-0.21,0.39c-1.26,0.87-1.75,0.74-1.92,0.22l0.46-0.48c0.13-0.31-0.08-0.44-0.25-0.36     c-0.55,0.36-1.05,0.36-1.26-0.26c0.05-0.62,0.18-1.36,0.13-1.93c-0.13-0.7-0.5-1.28-1.3-1.84C14.22,7.83,14.35,7.13,15.01,7.31     L15.01,7.31z M14.01,10.15c0.29,0,0.54,0.22,0.54,0.53c0,0.31-0.25,0.52-0.54,0.52c-0.26,0-0.5-0.21-0.5-0.52     C13.51,10.37,13.76,10.15,14.01,10.15z M15.31,13.65h2.13c0.17,0,0.25,0.1,0.22,0.26c-0.22,0.62-0.67,0.88-1.3,0.88     c-0.58,0.05-1-0.22-1.29-0.61C14.8,13.83,14.92,13.65,15.31,13.65L15.31,13.65z M17.32,17.2c0.88-0.18,1.72-0.4,2.46-0.67     c0.29-0.12,0.59-0.04,0.54,0.32c-0.16,0.64-0.67,1.56-1.16,2.22c-0.29,0.35-0.62,0.35-1.04,0c-0.46-0.39-0.88-0.87-1.13-1.4     C16.94,17.33,17.07,17.16,17.32,17.2z M15.06,17.29c-0.88-0.22-1.26-0.53-2.01-0.79c-0.28-0.13-0.62,0-0.5,0.53     c0.13,0.66,0.46,1.32,1.3,2.11c0.29,0.26,0.21,0.17,0.55,0c0.46-0.39,0.71-0.79,0.96-1.31C15.43,17.46,15.35,17.33,15.06,17.29     L15.06,17.29z M6.61,2.38c-0.17-0.69-0.25-1.26-0.3-1.75c0-0.3,0.06-0.43,0.26-0.41c0.14,0.02,0.26,0.12,0.31,0.25     C7.11,1.03,7.33,1.73,7.4,2.6L6.61,2.38z M6.06,1.92C5.69,1.88,5.48,2,5.35,2.44c-0.13,0.57,0,1.23,0.5,1.93     c0.25,0.17,0.38,0.08,0.45-0.23C5.89,3.32,6.15,2.41,6.06,1.92L6.06,1.92z M4.72,2.61c-0.46-0.17-0.62,0.1-0.66,0.53     c-0.04,1.27,0.5,1.84,1.13,1.23C4.89,3.75,4.72,3.14,4.72,2.61z M3.47,3.27C3.18,3.14,3.1,3.31,3.05,3.62     C3.02,4.54,3.51,5.24,3.89,4.81C3.64,4.37,3.51,3.67,3.47,3.27z M5.19,4.89C5.48,4.63,5.6,4.81,5.73,5.15     C5.77,5.42,5.9,5.68,6.19,5.94C6.36,6.16,6.65,6.38,6.77,6.6c0.17-0.04,0.29-0.26,0.17-0.47C6.43,5.73,6.35,5.6,6.4,5.07     c0.03-0.34,0.34-0.53,0.79-0.66C6.86,4.02,6.6,3.62,6.65,3.24c0.04-0.31,0.37-0.4,0.62-0.18c0.29,0.18,0.5,0.52,0.84,1.45     c0.12,0.31,0.17,0.61,0.08,0.96C7.94,7,6.69,7.48,5.82,6.9C5.56,7.3,5.06,7.39,4.68,7.26C4.02,6.9,3.93,6.38,3.93,5.73     C3.89,5.37,4.02,5.2,4.23,5.11C4.48,5.02,5.01,5.02,5.19,4.89z M23.79,30.94l6.62-0.53l0.62,5.25l-6.49,0.96L23.79,30.94     L23.79,30.94z M21.54,31.07l1.59-0.08l0.67,5.64c-0.46,0.21-1,0.17-1.58-0.09L21.54,31.07L21.54,31.07z M22.88,28.62     c-0.09-0.88,0.33-1.53,0.8-1.89c0.29-0.22,0.74-0.26,1.12,0.04c0.25-0.04,0.54,0.05,0.84,0.31c0.25-0.05,0.5,0.09,0.75,0.31     c0.67,0.26,1.21,0.27,1.01,1.22c-0.07,0.32-0.28,0.58-0.59,0.84c-0.41,0.35-0.84,0.43-0.91-0.05c0,0-0.54,0.47-0.76,0.56     c-0.67,0.27-0.47-0.57-0.55-1.17c-0.11-0.85-0.62-0.92-0.8-0.48c-0.08,0.83-0.82,0.93-0.91,0.35     C22.88,28.65,22.88,28.62,22.88,28.62z"/>
			<path d="M43.21,17.3l-5.02-0.42c-0.74-0.06-1.24-0.25-1.49-0.56c-0.33-0.35-0.47-1.52-0.32-2.6c0.09-0.67,0.28-1.14,0.53-1.29     c0.39-0.34,1.4-0.52,3-0.52c1.6,0,2.65,0.04,3.21,0.13c0.53,0.08,0.91,0.23,1.1,0.42c0.39,0.45,0.39,1.19,0.39,1.9     c0,0.17,0,0.33,0,0.5v0.07h2.06l0.01-0.07c0.16-1.72-0.11-2.92-0.8-3.67c-1.14-1.23-3.35-1.23-5.92-1.22     c-0.27,0.01-0.53,0.01-0.78,0.01c-2.23,0.03-3.84,0.05-4.67,2.26c-0.49,1.38-0.38,4.62,0.6,5.49c0.59,0.64,1.65,1.03,3.15,1.14     l4.92,0.38c1.55,0.17,1.57,0.6,1.63,2.17c0.01,0.14,0.01,0.29,0.02,0.44c0,0.12-0.01,0.23-0.01,0.33     c-0.02,0.69-0.03,1.24-0.34,1.68c-0.72,0.64-1.54,0.66-2.68,0.69c-0.14,0-0.29,0.01-0.45,0.01c-1.66,0-2.77-0.03-3.3-0.09     c-0.51-0.06-0.9-0.15-1.13-0.28c-0.82-0.53-0.83-1.6-0.84-2.73c0-0.18,0-0.37-0.01-0.56l0-0.07h-2.06v0.07     c-0.01,1.63-0.03,3.49,1.21,4.56c0.42,0.38,0.96,0.66,1.59,0.81c0.62,0.15,1.68,0.23,3.16,0.23c0.18,0,0.37,0,0.57,0     c1.42,0,3.28-0.08,3.84-0.27c2.38-0.66,2.56-2.68,2.54-4.69C46.87,18.6,45.97,17.57,43.21,17.3L43.21,17.3z"/>
			<path d="M60.08,9.95v7.03h-8.91V9.95h-2.05v16.58h2.05v-7.55h8.91v7.55h2.05V9.95H60.08z"/>
			<path d="M76.56,16.27v-2.46c0-1.43-0.36-2.45-1.07-3.02c-0.7-0.56-1.97-0.85-3.79-0.85h-7.35v16.58h2.05v-6.35h5.51     c1,0,1.68,0.19,2.01,0.57c0.33,0.38,0.5,1.14,0.5,2.27v3.52h2.13v-4.07c-0.05-1.79-0.3-2.71-1.67-3.25     C76.01,18.79,76.54,17.86,76.56,16.27L76.56,16.27z M74.42,16.03c0,0.82-0.19,1.38-0.56,1.69c-0.38,0.31-1.23,0.47-2.52,0.47     h-4.95v-6.22h4.95c1.32,0,2.17,0.15,2.54,0.46c0.36,0.3,0.54,0.87,0.54,1.7V16.03z"/>
			<path d="M80.85,9.95h-2.07v16.58h2.07V9.95z"/>
			<path d="M95.27,16.27v-2.46c0-1.43-0.36-2.45-1.07-3.02c-0.7-0.56-1.97-0.85-3.79-0.85h-7.35v16.58h2.05v-6.35h5.52     c1,0,1.68,0.19,2.01,0.57c0.34,0.38,0.5,1.14,0.5,2.27v3.52h2.13v-4.07c-0.05-1.79-0.31-2.71-1.67-3.25     C94.73,18.79,95.26,17.86,95.27,16.27L95.27,16.27z M93.14,16.03c0,0.82-0.19,1.38-0.56,1.69c-0.38,0.31-1.23,0.47-2.52,0.47     h-4.95v-6.22h4.95c1.32,0,2.17,0.15,2.54,0.46c0.36,0.3,0.54,0.87,0.54,1.7V16.03z"/>
			<path d="M106.59,9.95h-3.1L103.47,10c-0.06,0.15-5.92,16.38-5.95,16.47l-0.02,0.06h2.13l1.48-4.18h7.87l1.51,4.18h2.13     L106.59,9.95z M101.8,20.45l3.06-8.48h0.37l3.08,8.48H101.8z"/>
			<path d="M131.83,9.95h-3.17l-5.31,14.24l-5.37-14.24h-3.15v16.58h2.05V12.41c0.84,2.26,5.23,14.06,5.25,14.1l0,0.01h2.4     l5.25-14.11v14.11h2.05L131.83,9.95L131.83,9.95z"/>
		</g>
	</g>
</g>
</svg>